<svg width="10" height="8" fill="none" xmlns="http://www.w3.org/2000/svg"><path d="M4.902 7.887l-.605-.547a80.948 80.948 0 0 1-1.504-1.387c-.313-.3-.664-.67-1.055-1.113-.377-.443-.638-.84-.78-1.192a3.021 3.021 0 0 1-.216-1.113c0-.638.215-1.178.645-1.62.442-.444.99-.665 1.64-.665.756 0 1.38.293 1.875.879C5.397.543 6.022.25 6.777.25c.651 0 1.192.221 1.621.664.443.443.665.983.665 1.621 0 .508-.17 1.035-.508 1.582A7.84 7.84 0 0 1 7.44 5.543c-.39.404-1.035 1.01-1.933 1.816l-.606.528z" fill="#BC9CFF"/></svg>